<?xml version="1.0"?><svg width="640" height="480" xmlns="http://www.w3.org/2000/svg">
 <metadata id="metadata4">image/svg+xml</metadata>
 <g>
  <title>Layer 1</title>
  <g id="layer1">
   <g id="g2055">
    <path fill="#000000" fill-rule="evenodd" stroke-width="1.0000000px" d="m289.778137,63.64922c-20.456879,6.459255 -43.02063,-9.152348 -62.820679,5.598095c-42.615448,25.869598 -38.789429,80.387543 -46.212677,121.759338c-14.915787,8.255173 -3.602097,26.657303 -15.048904,37.908646c6.041107,21.427048 -19.194458,20.078735 -36.202499,23.368332c-30.937775,6.782928 -66.561592,0.867294 -93.274639,19.084137c4.40469,47.53006 64.167393,64.178101 106.547359,75.645752c116.999557,26.557251 241.431931,31.582123 360.008682,10.731232c36.497498,-7.397827 90.163757,-21.935425 88.406921,-64.177063c-8.362976,-40.619995 -63.940857,-50.703918 -101.934845,-42.971771c-19.372894,-41.653061 -12.707275,-88.702759 -29.38797,-131.122345c-30.047943,-58.509834 -108.508453,-65.381638 -170.08075,-55.824352z" id="path4735"/>
    <path fill="#4c2200" fill-rule="evenodd" stroke-width="1.0000000px" d="m475.049774,253.841507c-89.851044,25.686539 -305.627457,36.061569 -414.838001,15.319229c-7.56382,1.531403 -12.965618,3.400024 -14.055096,6.231567c3.085773,100.173492 510.807739,117.109711 533.951294,32.456024c13.886047,-33.155975 -37.885803,-62.775772 -100.373199,-47.255951c-1.737732,-0.56076 -3.321411,-3.082825 -4.684998,-6.75087z" id="path1295"/>
    <path fill="#632d00" fill-rule="evenodd" stroke-width="1.0000000px" d="m324.986877,68.452713c-26.230743,1.078842 -47.316559,5.682907 -52.813049,7.270149c-5.400177,-2.82177 -13.195923,-8.492577 -33.079147,-2.726311c-48.727783,11.597511 -45.48674,108.823776 -54.232742,157.476624c93.000275,-6.259018 197.030457,-1.120621 286.780548,10.256104c-6.329895,-32.63472 -9.233795,-95.922897 -19.591919,-116.971504c-25.072144,-48.940384 -83.345642,-57.103142 -127.06369,-55.305061z" id="path2102"/>
    <path fill="#b16f37" fill-rule="evenodd" stroke-width="1.0000000px" id="path1294" d="m232.004593,243.042786c-26.673248,0.426498 -45.016281,1.70723 -48.487793,3.999954c-0.735779,0.485825 -1.750931,0.97406 -2.858963,1.464066c-0.341171,0.891663 -0.629974,1.974243 -1.000702,2.771179c-40.426666,16.199371 -126.679211,14.603058 -132.437595,22.672699c143.62804,41.898041 418.623905,-4.946625 439.732883,-14.49353c3.514343,-14.195572 -192.003845,-17.420898 -254.94783,-16.414368z"/>
    <path fill="#8e4000" fill-rule="evenodd" stroke-width="1.0000000px" d="m232.004593,241.085037c-26.673248,0.426361 -45.016281,1.70723 -48.487793,3.999939c-0.735779,0.485825 -1.750931,0.97406 -2.858963,1.463943c-0.341171,0.891785 -0.629974,1.974243 -1.000702,2.771301c-40.426666,16.199371 -109.647896,14.256958 -128.652798,22.326447c159.470364,41.045959 448.205624,-16.341476 435.191128,-13.10907c0.865051,-13.503342 -191.246887,-18.459091 -254.190872,-17.45256z" id="path1306"/>
    <path fill="#371800" fill-rule="evenodd" stroke-width="1.0000000px" d="m246.783005,72.257927c42.172592,31.509979 -4.371597,120.161125 -21.600616,138.973152c-30.858078,39.505051 103.374252,36.683273 94.888351,3.527161c-43.972656,-18.341568 -44.744171,-67.017441 -43.201233,-131.91864c-7.105042,-6.966629 -16.971832,-2.116356 -30.086502,-10.581673z" id="path1316"/>
    <path fill="#000000" fill-rule="evenodd" stroke-width="1.0000000px" d="m182.750809,199.761017c88.459579,-57.611588 217.036392,-2.168655 286.209641,22.051727c5.045715,4.541245 17.533905,34.368408 14.312286,33.839828c-61.650787,-9.230438 -247.324005,-16.143311 -306.725662,-4.856094c-2.700089,1.058121 -5.298233,-22.182373 1.769791,-27.131973c8.375137,-6.574371 -0.612534,-18.197876 4.433945,-23.903488z" id="path1310"/>
    <path fill="#512400" fill-rule="evenodd" stroke-miterlimit="4" id="path1312" d="m304.655396,122.48629c-10.020966,-82.945747 117.576874,-49.670715 117.658295,26.011787c-17.163483,-43.664375 -96.207977,-77.902382 -117.658295,-26.011787z"/>
    <path fill="#512400" fill-rule="evenodd" stroke-miterlimit="4" id="path1314" d="m247.470932,80.266708c-20.735611,1.145714 -44.648605,57.3797 -38.082764,55.825241c11.028946,-31.767723 44.162949,-60.239075 46.044067,-19.186394c3.84761,-11.452667 6.438187,-30.695595 -7.961304,-36.638847z"/>
   </g>
  </g>
 </g>
</svg>